<?xml version="1.0" encoding="UTF-8" standalone="no"?>
<!-- Created with Inkscape (http://www.inkscape.org/) -->
<!ENTITY fill_color "#FFFFFF">
<!ENTITY stroke_color "#000000">
<svg
   xmlns:dc="http://purl.org/dc/elements/1.1/"
   xmlns:cc="http://web.resource.org/cc/"
   xmlns:rdf="http://www.w3.org/1999/02/22-rdf-syntax-ns#"
   xmlns:svg="http://www.w3.org/2000/svg"
   xmlns="http://www.w3.org/2000/svg"
   xmlns:sodipodi="http://sodipodi.sourceforge.net/DTD/sodipodi-0.dtd"
   xmlns:inkscape="http://www.inkscape.org/namespaces/inkscape"
   version="1.0"
   width="48"
   height="48"
   id="svg2"
   sodipodi:version="0.32"
   inkscape:version="0.45.1"
   sodipodi:docname="xomaze.svg"
   inkscape:output_extension="org.inkscape.output.svg.inkscape"
   sodipodi:docbase="C:\Documents and Settings\Shawnerelli\Desktop">
  <metadata
     id="metadata2694">
    <rdf:RDF>
      <cc:Work
         rdf:about="">
        <dc:format>image/svg+xml</dc:format>
        <dc:type
           rdf:resource="http://purl.org/dc/dcmitype/StillImage" />
      </cc:Work>
    </rdf:RDF>
  </metadata>
  <sodipodi:namedview
     inkscape:window-height="579"
     inkscape:window-width="748"
     inkscape:pageshadow="2"
     inkscape:pageopacity="0.0"
     guidetolerance="10.0"
     gridtolerance="10.0"
     objecttolerance="10.0"
     borderopacity="1.0"
     bordercolor="#666666"
     pagecolor="#ffffff"
     id="base"
     inkscape:zoom="7.875"
     inkscape:cx="17.740405"
     inkscape:cy="28.353741"
     inkscape:window-x="47"
     inkscape:window-y="38"
     inkscape:current-layer="svg2" />
  <defs
     id="defs4" />
  <rect
     style="fill:#8c8c8c;fill-opacity:1"
     id="rect2813"
     width="5.0380006"
     height="24.84973"
     x="31.781288"
     y="-12.245284"
     ry="2.4506752"
     rx="2.5190003"
     transform="matrix(0.7071068,0.7071068,-0.7071068,0.7071068,0,0)" />
  <rect
     style="fill:#8c8c8c;fill-opacity:1"
     id="rect2699"
     width="1.9047619"
     height="44.444443"
     x="2.1587303"
     y="1.6507937" />
  <rect
     style="fill:#8c8c8c;fill-opacity:1"
     id="rect2701"
     width="1.9047619"
     height="44.444443"
     x="44.507935"
     y="1.5555564" />
  <rect
     style="fill:#8c8c8c;fill-opacity:1"
     id="rect2705"
     width="44.190475"
     height="2.1587303"
     x="2.1587303"
     y="1.5238096" />
  <rect
     style="fill:#8c8c8c;fill-opacity:1"
     id="rect2715"
     width="44.190475"
     height="2.1587303"
     x="2.1587305"
     y="44" />
  <rect
     style="fill:#8c8c8c;fill-opacity:1"
     id="rect2723"
     width="5.0380006"
     height="24.84973"
     x="-2.4516556"
     y="-46.972084"
     ry="2.4506752"
     rx="2.5190003"
     transform="matrix(-0.7071068,0.7071068,-0.7071068,-0.7071068,0,0)" />
  <path
     sodipodi:type="arc"
     style="fill:#8c8c8c;fill-opacity:1"
     id="path2725"
     sodipodi:cx="25.079365"
     sodipodi:cy="14.920635"
     sodipodi:rx="3.6190476"
     sodipodi:ry="3.6190476"
     d="M 28.698412 14.920635 A 3.6190476 3.6190476 0 1 1  21.460317,14.920635 A 3.6190476 3.6190476 0 1 1  28.698412 14.920635 z"
     transform="translate(-0.7619048,-2.2857143)" />
  <rect
     style="fill:#8c8c8c;fill-opacity:1"
     id="rect2741"
     width="5.0793648"
     height="1.5238096"
     x="3.9682541"
     y="7.8095231"
     rx="0"
     ry="0.76190478" />
  <rect
     style="fill:#8c8c8c;fill-opacity:1"
     id="rect2743"
     width="5.0793648"
     height="1.6507937"
     x="12.349207"
     y="7.4603162"
     rx="0"
     ry="0.82539684" />
  <rect
     style="fill:#8c8c8c;fill-opacity:1"
     id="rect2745"
     width="4.5714283"
     height="1.5238096"
     x="3.9682541"
     y="19.809523"
     rx="0"
     ry="0.76190478" />
  <rect
     style="fill:#8c8c8c;fill-opacity:1"
     id="rect2747"
     width="5.0793648"
     height="1.5238096"
     x="7.6507936"
     y="34.69841"
     rx="0"
     ry="0.76190478" />
  <rect
     style="fill:#8c8c8c;fill-opacity:1"
     id="rect2749"
     width="5.0793648"
     height="1.5238096"
     x="3.8730159"
     y="30.285713"
     rx="0"
     ry="0.76190478" />
  <rect
     style="fill:#8c8c8c;fill-opacity:1"
     id="rect2757"
     width="5.0793648"
     height="1.5238096"
     x="39.619049"
     y="8.317461"
     rx="0"
     ry="0.76190478" />
  <rect
     style="fill:#8c8c8c;fill-opacity:1"
     id="rect2759"
     width="5.0793648"
     height="1.5238096"
     x="39.619049"
     y="14.31746"
     rx="0"
     ry="0.76190478" />
  <rect
     style="fill:#8c8c8c;fill-opacity:1"
     id="rect2761"
     width="5.0793648"
     height="1.5238096"
     x="3.3015888"
     y="24.888887"
     rx="0"
     ry="0.76190478" />
  <rect
     style="fill:#8c8c8c;fill-opacity:1"
     id="rect2763"
     width="5.0793648"
     height="1.5238096"
     x="39.619049"
     y="25.555553"
     rx="0"
     ry="0.76190478" />
  <rect
     style="fill:#8c8c8c;fill-opacity:1"
     id="rect2765"
     width="5.0793648"
     height="1.5238096"
     x="17.396826"
     y="38.412697"
     rx="0"
     ry="0.76190478" />
  <rect
     style="fill:#8c8c8c;fill-opacity:1"
     id="rect2767"
     width="5.333333"
     height="1.5238096"
     x="34.73016"
     y="-13.968257"
     rx="0"
     ry="0.76190478"
     transform="matrix(0,1,-1,0,0,0)" />
  <rect
     style="fill:#8c8c8c;fill-opacity:1"
     id="rect2769"
     width="7.9999995"
     height="1.5238096"
     x="13.174606"
     y="-8.5079384"
     rx="0"
     ry="0.76190478"
     transform="matrix(0,1,-1,0,0,0)" />
  <rect
     style="fill:#8c8c8c;fill-opacity:1"
     id="rect2771"
     width="5.0793648"
     height="1.5238096"
     x="31.111111"
     y="-8.8888912"
     rx="0"
     ry="0.76190478"
     transform="matrix(0,1,-1,0,0,0)" />
  <rect
     style="fill:#8c8c8c;fill-opacity:1"
     id="rect2773"
     width="23.873016"
     height="1.5238096"
     x="7.5238142"
     y="-13.841276"
     rx="0"
     ry="0.76190478"
     transform="matrix(0,1,-1,0,0,0)" />
  <rect
     style="fill:#8c8c8c;fill-opacity:1"
     id="rect2775"
     width="5.0793648"
     height="1.5238096"
     x="39.682541"
     y="-18.920637"
     rx="0"
     ry="0.76190478"
     transform="matrix(0,1,-1,0,0,0)" />
  <rect
     style="fill:#8c8c8c;fill-opacity:1"
     id="rect2785"
     width="5.0793648"
     height="1.6507937"
     x="29.809523"
     y="7.8253946"
     rx="0"
     ry="0.82539684" />
  <rect
     style="fill:#8c8c8c;fill-opacity:1"
     id="rect2787"
     width="4.5714283"
     height="1.5238096"
     x="34.761906"
     y="29.952381"
     rx="0"
     ry="0.76190478" />
  <rect
     style="fill:#8c8c8c;fill-opacity:1"
     id="rect2789"
     width="5.0793648"
     height="1.5238096"
     x="28.79365"
     y="40.523808"
     rx="0"
     ry="0.76190478" />
  <rect
     style="fill:#8c8c8c;fill-opacity:1"
     id="rect2791"
     width="5.0793648"
     height="1.5238096"
     x="25.015871"
     y="36.111111"
     rx="0"
     ry="0.76190478" />
  <rect
     style="fill:#8c8c8c;fill-opacity:1"
     id="rect2793"
     width="5.0793648"
     height="1.5238096"
     x="34.857143"
     y="35.53968"
     rx="0"
     ry="0.76190478" />
  <rect
     style="fill:#8c8c8c;fill-opacity:1"
     id="rect2795"
     width="5.0793648"
     height="1.5238096"
     x="39.301586"
     y="44.365078"
     rx="0"
     ry="0.76190478" />
  <rect
     style="fill:#8c8c8c;fill-opacity:1"
     id="rect2797"
     width="5.333333"
     height="1.5238096"
     x="40.555557"
     y="-35.111115"
     rx="0"
     ry="0.76190478"
     transform="matrix(0,1,-1,0,0,0)" />
  <rect
     style="fill:#8c8c8c;fill-opacity:1"
     id="rect2799"
     width="7.9999995"
     height="1.5238096"
     x="19.126987"
     y="-41.079365"
     rx="0"
     ry="0.76190478"
     transform="matrix(0,1,-1,0,0,0)" />
  <rect
     style="fill:#8c8c8c;fill-opacity:1"
     id="rect2801"
     width="5.0793648"
     height="1.5238096"
     x="36.936508"
     y="-30.031746"
     rx="0"
     ry="0.76190478"
     transform="matrix(0,1,-1,0,0,0)" />
  <rect
     style="fill:#8c8c8c;fill-opacity:1"
     id="rect2803"
     width="23.873016"
     height="1.5238096"
     x="13.222227"
     y="-36.126987"
     rx="0"
     ry="0.76190478"
     transform="matrix(0,1,-1,0,0,0)" />
  <rect
     style="fill:#8c8c8c;fill-opacity:1"
     id="rect2805"
     width="5.0793648"
     height="1.5238096"
     x="40.809525"
     y="-40.825397"
     rx="0"
     ry="0.76190478"
     transform="matrix(0,1,-1,0,0,0)" />
  <rect
     style="fill:#8c8c8c;fill-opacity:1"
     id="rect2807"
     width="5.0793648"
     height="1.5238096"
     x="3.3015883"
     y="-31.36508"
     rx="0"
     ry="0.76190478"
     transform="matrix(0,1,-1,0,0,0)" />
  <rect
     style="fill:#333333;fill-opacity:1"
     id="rect2809"
     width="2.7031801"
     height="21.995293"
     x="-1.4413791"
     y="23.572029"
     ry="1.0018837"
     rx="1.35159"
     transform="matrix(0.7071068,-0.7071068,0.7071068,0.7071068,0,0)" />
  <rect
     style="fill:#333333;fill-opacity:1"
     id="rect2811"
     width="2.7031801"
     height="21.995293"
     x="-35.651882"
     y="-11.177228"
     ry="1.0018837"
     rx="1.35159"
     transform="matrix(-0.7071068,-0.7071068,0.7071068,-0.7071068,0,0)" />
  <path
     sodipodi:type="arc"
     style="fill:#333333;fill-opacity:1"
     id="path2815"
     sodipodi:cx="24.190475"
     sodipodi:cy="12.761905"
     sodipodi:rx="2.0952382"
     sodipodi:ry="2.0952382"
     d="M 26.285714 12.761905 A 2.0952382 2.0952382 0 1 1  22.095237,12.761905 A 2.0952382 2.0952382 0 1 1  26.285714 12.761905 z"
     transform="translate(0.1269841,-0.1269841)" />
</svg>
