<?xml version="1.0" ?><!DOCTYPE svg  PUBLIC '-//W3C//DTD SVG 1.1//EN'  'http://www.w3.org/Graphics/SVG/1.1/DTD/svg11.dtd' [
	<!ENTITY stroke_color "#010101">
	<!ENTITY fill_color "#FFFFFF">
]><svg enable-background="new 0 0 55 55" height="55px" version="1.1" viewBox="0 0 55 55" width="55px" x="0px" xml:space="preserve" xmlns="http://www.w3.org/2000/svg" xmlns:xlink="http://www.w3.org/1999/xlink" y="0px"><g display="block" id="activity-connect">
	<g display="inline">
		<path d="M14.118,9.535    c0.001,2.432-1.97,4.405-4.402,4.406c-2.433,0.001-4.405-1.97-4.406-4.402c0-0.001,0-0.003,0-0.004    C5.308,7.103,7.279,5.13,9.711,5.128c2.432-0.001,4.405,1.97,4.406,4.402C14.118,9.532,14.118,9.534,14.118,9.535z" fill="&fill_color;" id="path2160" stroke="&stroke_color;" stroke-linejoin="bevel" stroke-width="2.25"/>
		<path d="M51.188,9.535    c0.002,2.432-1.969,4.405-4.402,4.406c-2.432,0.001-4.404-1.97-4.406-4.402c0-0.001,0-0.003,0-0.004    c0-2.433,1.971-4.405,4.402-4.407c2.434-0.001,4.406,1.97,4.406,4.402C51.188,9.532,51.188,9.534,51.188,9.535z" fill="&stroke_color;" id="path2162" stroke="&stroke_color;" stroke-linejoin="bevel" stroke-width="2.25"/>
		<path d="M26.475,9.535    c0,2.432-1.971,4.405-4.403,4.406c-2.433,0.001-4.405-1.97-4.407-4.402c0-0.001,0-0.003,0-0.004    c-0.001-2.433,1.97-4.405,4.402-4.407c2.433-0.001,4.405,1.97,4.407,4.402C26.475,9.532,26.475,9.534,26.475,9.535z" fill="&fill_color;" id="path3134" stroke="&stroke_color;" stroke-linejoin="bevel" stroke-width="2.25"/>
		<path d="M38.832,9.535    c0,2.432-1.971,4.405-4.402,4.406c-2.434,0.001-4.406-1.97-4.408-4.402c0-0.001,0-0.003,0-0.004c0-2.433,1.971-4.405,4.402-4.407    c2.434-0.001,4.406,1.97,4.408,4.402C38.832,9.532,38.832,9.534,38.832,9.535z" fill="&fill_color;" id="path3136" stroke="&stroke_color;" stroke-linejoin="bevel" stroke-width="2.25"/>
		<path d="M26.475,21.892    c0,2.433-1.971,4.405-4.403,4.406c-2.433,0.001-4.405-1.97-4.407-4.402c0-0.001,0-0.003,0-0.004    c-0.001-2.433,1.97-4.405,4.402-4.407c2.433-0.001,4.405,1.97,4.407,4.402C26.475,21.889,26.475,21.891,26.475,21.892z" fill="&fill_color;" id="path3138" stroke="&stroke_color;" stroke-linejoin="bevel" stroke-width="2.25"/>
		<path d="M38.832,21.892    c0,2.433-1.971,4.405-4.402,4.406c-2.434,0.001-4.406-1.97-4.408-4.402c0-0.001,0-0.003,0-0.004c0-2.433,1.971-4.405,4.402-4.407    c2.434-0.001,4.406,1.97,4.408,4.402C38.832,21.889,38.832,21.891,38.832,21.892z" fill="&stroke_color;" id="path3140" stroke="&stroke_color;" stroke-linejoin="bevel" stroke-width="2.25"/>
		<path d="M14.118,21.892    c0.001,2.433-1.97,4.405-4.402,4.406s-4.405-1.97-4.406-4.402c0-0.001,0-0.003,0-0.004c-0.001-2.433,1.97-4.405,4.402-4.407    c2.432-0.001,4.405,1.97,4.406,4.402C14.118,21.889,14.118,21.891,14.118,21.892z" fill="&fill_color;" id="path3142" stroke="&stroke_color;" stroke-linejoin="bevel" stroke-width="2.25"/>
		<path d="M51.188,21.892    c0.002,2.433-1.969,4.405-4.402,4.406c-2.432,0.001-4.404-1.97-4.406-4.402c0-0.001,0-0.003,0-0.004    c0-2.433,1.971-4.405,4.402-4.407c2.434-0.001,4.406,1.97,4.406,4.402C51.188,21.889,51.188,21.891,51.188,21.892z" fill="&fill_color;" id="path3144" stroke="&stroke_color;" stroke-linejoin="bevel" stroke-width="2.25"/>
		<path d="M14.118,34.248    c0.001,2.432-1.97,4.404-4.402,4.406c-2.433,0.001-4.405-1.97-4.406-4.402c0-0.002,0-0.003,0-0.004    c-0.001-2.433,1.97-4.405,4.402-4.406c2.432-0.002,4.405,1.969,4.406,4.402C14.118,34.245,14.118,34.246,14.118,34.248z" fill="&fill_color;" id="path3146" stroke="&stroke_color;" stroke-linejoin="bevel" stroke-width="2.25"/>
		<path d="M26.475,34.248    c0,2.432-1.971,4.404-4.403,4.406c-2.433,0.001-4.405-1.97-4.407-4.402c0-0.002,0-0.003,0-0.004    c-0.001-2.433,1.97-4.405,4.402-4.406c2.433-0.002,4.405,1.969,4.407,4.402C26.475,34.245,26.475,34.246,26.475,34.248z" fill="&stroke_color;" id="path3148" stroke="&stroke_color;" stroke-linejoin="bevel" stroke-width="2.25"/>
		<path d="M51.188,34.248    c0.002,2.432-1.969,4.404-4.402,4.406c-2.432,0.001-4.404-1.97-4.406-4.402c0-0.002,0-0.003,0-0.004    c0-2.433,1.971-4.405,4.402-4.406c2.434-0.002,4.406,1.969,4.406,4.402C51.188,34.245,51.188,34.246,51.188,34.248z" fill="&fill_color;" id="path3150" stroke="&stroke_color;" stroke-linejoin="bevel" stroke-width="2.25"/>
		<path d="M38.832,34.248    c0,2.432-1.971,4.404-4.402,4.406c-2.434,0.001-4.406-1.97-4.408-4.402c0-0.002,0-0.003,0-0.004c0-2.433,1.971-4.405,4.402-4.406    c2.434-0.002,4.406,1.969,4.408,4.402C38.832,34.245,38.832,34.246,38.832,34.248z" fill="&fill_color;" id="path3152" stroke="&stroke_color;" stroke-linejoin="bevel" stroke-width="2.25"/>
		<path d="M38.832,46.604    c0,2.434-1.971,4.406-4.402,4.407c-2.434,0.001-4.406-1.97-4.408-4.402c0-0.001,0-0.003,0-0.005c0-2.432,1.971-4.404,4.402-4.406    c2.434,0,4.406,1.971,4.408,4.402C38.832,46.602,38.832,46.603,38.832,46.604z" fill="&fill_color;" id="path3154" stroke="&stroke_color;" stroke-linejoin="bevel" stroke-width="2.25"/>
		<path d="M14.118,46.604    c0.001,2.434-1.97,4.406-4.402,4.407s-4.405-1.97-4.406-4.402c0-0.001,0-0.003,0-0.005c-0.001-2.432,1.97-4.404,4.402-4.406    c2.432,0,4.405,1.971,4.406,4.402C14.118,46.602,14.118,46.603,14.118,46.604z" fill="&stroke_color;" id="path3156" stroke="&stroke_color;" stroke-linejoin="bevel" stroke-width="2.25"/>
		<path d="M26.475,46.604    c0,2.434-1.971,4.406-4.403,4.407c-2.433,0.001-4.405-1.97-4.407-4.402c0-0.001,0-0.003,0-0.005    c-0.001-2.432,1.97-4.404,4.402-4.406c2.433,0,4.405,1.971,4.407,4.402C26.475,46.602,26.475,46.603,26.475,46.604z" fill="&fill_color;" id="path3158" stroke="&stroke_color;" stroke-linejoin="bevel" stroke-width="2.25"/>
		<path d="M51.188,46.604    c0.002,2.434-1.969,4.406-4.402,4.407c-2.432,0.001-4.404-1.97-4.406-4.402c0-0.001,0-0.003,0-0.005    c0-2.432,1.971-4.404,4.402-4.406c2.434,0,4.406,1.971,4.406,4.402C51.188,46.602,51.188,46.603,51.188,46.604z" fill="&fill_color;" id="path3160" stroke="&stroke_color;" stroke-linejoin="bevel" stroke-width="2.25"/>
	</g>
</g></svg>

